<svg width="1600" height="900" viewBox="0 0 1600 900" fill="none" xmlns="http://www.w3.org/2000/svg">
  <defs>
    <linearGradient id="bg" x1="0" y1="0" x2="1600" y2="900" gradientUnits="userSpaceOnUse">
      <stop stop-color="#F8F5EE"/>
      <stop offset="1" stop-color="#EDE8DF"/>
    </linearGradient>
  </defs>
  <rect width="1600" height="900" fill="url(#bg)"/>
  <g stroke="#7B8494" stroke-opacity="0.28" stroke-width="1.1">
    <path d="M120 180C220 136 326 146 430 170C520 192 618 214 716 170C824 120 900 110 1006 150C1088 182 1176 238 1270 214C1362 190 1436 162 1512 176"/>
    <path d="M88 248C196 210 304 220 408 246C506 270 606 304 702 264C816 218 906 202 1020 244C1112 278 1188 336 1288 318C1386 300 1468 260 1530 268"/>
    <path d="M56 320C170 286 292 300 398 330C500 358 598 392 704 356C824 316 920 302 1038 346C1134 382 1210 446 1318 430C1420 412 1498 362 1560 370"/>
    <path d="M34 394C156 366 278 386 390 418C500 450 608 486 716 456C838 420 938 414 1060 458C1158 494 1238 560 1348 548C1450 538 1526 474 1580 488"/>
    <path d="M26 476C148 454 276 480 392 516C506 550 622 586 734 562C860 534 962 540 1088 586C1186 622 1264 684 1372 674C1480 662 1548 592 1592 610"/>
    <path d="M18 562C140 548 272 576 392 618C510 660 634 694 744 678C872 656 980 668 1112 716C1214 754 1292 812 1400 802C1510 792 1572 718 1598 738"/>
    <path d="M18 654C148 644 286 674 412 718C536 760 658 792 768 782C900 768 1014 786 1146 838C1248 878 1322 910 1428 896C1526 882 1578 830 1598 848"/>
  </g>
  <g fill="#B7955A" fill-opacity="0.12">
    <ellipse cx="1280" cy="180" rx="230" ry="120"/>
    <ellipse cx="280" cy="738" rx="220" ry="108"/>
  </g>
</svg>
